<svg width="111" height="21" viewBox="0 0 111 21" fill="none" xmlns="http://www.w3.org/2000/svg">
<circle cx="10" cy="10" r="7.5" stroke="#2F3CD0" stroke-width="5"/>
<path d="M32.194 13.624H36.226V16H29.116V3.364H32.194V13.624ZM41.8581 16.144C40.8741 16.144 39.9861 15.934 39.1941 15.514C38.4141 15.094 37.7961 14.494 37.3401 13.714C36.8961 12.934 36.6741 12.022 36.6741 10.978C36.6741 9.946 36.9021 9.04 37.3581 8.26C37.8141 7.468 38.4381 6.862 39.2301 6.442C40.0221 6.022 40.9101 5.812 41.8941 5.812C42.8781 5.812 43.7661 6.022 44.5581 6.442C45.3501 6.862 45.9741 7.468 46.4301 8.26C46.8861 9.04 47.1141 9.946 47.1141 10.978C47.1141 12.01 46.8801 12.922 46.4121 13.714C45.9561 14.494 45.3261 15.094 44.5221 15.514C43.7301 15.934 42.8421 16.144 41.8581 16.144ZM41.8581 13.48C42.4461 13.48 42.9441 13.264 43.3521 12.832C43.7721 12.4 43.9821 11.782 43.9821 10.978C43.9821 10.174 43.7781 9.556 43.3701 9.124C42.9741 8.692 42.4821 8.476 41.8941 8.476C41.2941 8.476 40.7961 8.692 40.4001 9.124C40.0041 9.544 39.8061 10.162 39.8061 10.978C39.8061 11.782 39.9981 12.4 40.3821 12.832C40.7781 13.264 41.2701 13.48 41.8581 13.48ZM52.1551 5.812C52.8631 5.812 53.4811 5.956 54.0091 6.244C54.5491 6.532 54.9631 6.91 55.2511 7.378V5.956H58.3291V15.982C58.3291 16.906 58.1431 17.74 57.7711 18.484C57.4111 19.24 56.8531 19.84 56.0971 20.284C55.3531 20.728 54.4231 20.95 53.3071 20.95C51.8191 20.95 50.6131 20.596 49.6891 19.888C48.7651 19.192 48.2371 18.244 48.1051 17.044H51.1471C51.2431 17.428 51.4711 17.728 51.8311 17.944C52.1911 18.172 52.6351 18.286 53.1631 18.286C53.7991 18.286 54.3031 18.1 54.6751 17.728C55.0591 17.368 55.2511 16.786 55.2511 15.982V14.56C54.9511 15.028 54.5371 15.412 54.0091 15.712C53.4811 16 52.8631 16.144 52.1551 16.144C51.3271 16.144 50.5771 15.934 49.9051 15.514C49.2331 15.082 48.6991 14.476 48.3031 13.696C47.9191 12.904 47.7271 11.992 47.7271 10.96C47.7271 9.928 47.9191 9.022 48.3031 8.242C48.6991 7.462 49.2331 6.862 49.9051 6.442C50.5771 6.022 51.3271 5.812 52.1551 5.812ZM55.2511 10.978C55.2511 10.21 55.0351 9.604 54.6031 9.16C54.1831 8.716 53.6671 8.494 53.0551 8.494C52.4431 8.494 51.9211 8.716 51.4891 9.16C51.0691 9.592 50.8591 10.192 50.8591 10.96C50.8591 11.728 51.0691 12.34 51.4891 12.796C51.9211 13.24 52.4431 13.462 53.0551 13.462C53.6671 13.462 54.1831 13.24 54.6031 12.796C55.0351 12.352 55.2511 11.746 55.2511 10.978ZM64.7199 16.144C63.7359 16.144 62.8479 15.934 62.0559 15.514C61.2759 15.094 60.6579 14.494 60.2019 13.714C59.7579 12.934 59.5359 12.022 59.5359 10.978C59.5359 9.946 59.7639 9.04 60.2199 8.26C60.6759 7.468 61.2999 6.862 62.0919 6.442C62.8839 6.022 63.7719 5.812 64.7559 5.812C65.7399 5.812 66.6279 6.022 67.4199 6.442C68.2119 6.862 68.8359 7.468 69.2919 8.26C69.7479 9.04 69.9759 9.946 69.9759 10.978C69.9759 12.01 69.7419 12.922 69.2739 13.714C68.8179 14.494 68.1879 15.094 67.3839 15.514C66.5919 15.934 65.7039 16.144 64.7199 16.144ZM64.7199 13.48C65.3079 13.48 65.8059 13.264 66.2139 12.832C66.6339 12.4 66.8439 11.782 66.8439 10.978C66.8439 10.174 66.6399 9.556 66.2319 9.124C65.8359 8.692 65.3439 8.476 64.7559 8.476C64.1559 8.476 63.6579 8.692 63.2619 9.124C62.8659 9.544 62.6679 10.162 62.6679 10.978C62.6679 11.782 62.8599 12.4 63.2439 12.832C63.6399 13.264 64.1319 13.48 64.7199 13.48ZM81.1368 3.454V16H79.4988V10.312H73.1088V16H71.4708V3.454H73.1088V8.962H79.4988V3.454H81.1368ZM92.5257 10.69C92.5257 11.002 92.5077 11.332 92.4717 11.68H84.5877C84.6477 12.652 84.9777 13.414 85.5777 13.966C86.1897 14.506 86.9277 14.776 87.7917 14.776C88.4997 14.776 89.0877 14.614 89.5557 14.29C90.0357 13.954 90.3717 13.51 90.5637 12.958H92.3277C92.0637 13.906 91.5357 14.68 90.7437 15.28C89.9517 15.868 88.9677 16.162 87.7917 16.162C86.8557 16.162 86.0157 15.952 85.2717 15.532C84.5397 15.112 83.9637 14.518 83.5437 13.75C83.1237 12.97 82.9137 12.07 82.9137 11.05C82.9137 10.03 83.1177 9.136 83.5257 8.368C83.9337 7.6 84.5037 7.012 85.2357 6.604C85.9797 6.184 86.8317 5.974 87.7917 5.974C88.7277 5.974 89.5557 6.178 90.2757 6.586C90.9957 6.994 91.5477 7.558 91.9317 8.278C92.3277 8.986 92.5257 9.79 92.5257 10.69ZM90.8337 10.348C90.8337 9.724 90.6957 9.19 90.4197 8.746C90.1437 8.29 89.7657 7.948 89.2857 7.72C88.8177 7.48 88.2957 7.36 87.7197 7.36C86.8917 7.36 86.1837 7.624 85.5957 8.152C85.0197 8.68 84.6897 9.412 84.6057 10.348H90.8337ZM95.9178 7.738C96.2058 7.174 96.6138 6.736 97.1418 6.424C97.6818 6.112 98.3358 5.956 99.1038 5.956V7.648H98.6718C96.8358 7.648 95.9178 8.644 95.9178 10.636V16H94.2798V6.136H95.9178V7.738ZM109.587 10.69C109.587 11.002 109.569 11.332 109.533 11.68H101.649C101.709 12.652 102.039 13.414 102.639 13.966C103.251 14.506 103.989 14.776 104.853 14.776C105.561 14.776 106.149 14.614 106.617 14.29C107.097 13.954 107.433 13.51 107.625 12.958H109.389C109.125 13.906 108.597 14.68 107.805 15.28C107.013 15.868 106.029 16.162 104.853 16.162C103.917 16.162 103.077 15.952 102.333 15.532C101.601 15.112 101.025 14.518 100.605 13.75C100.185 12.97 99.9746 12.07 99.9746 11.05C99.9746 10.03 100.179 9.136 100.587 8.368C100.995 7.6 101.565 7.012 102.297 6.604C103.041 6.184 103.893 5.974 104.853 5.974C105.789 5.974 106.617 6.178 107.337 6.586C108.057 6.994 108.609 7.558 108.993 8.278C109.389 8.986 109.587 9.79 109.587 10.69ZM107.895 10.348C107.895 9.724 107.757 9.19 107.481 8.746C107.205 8.29 106.827 7.948 106.347 7.72C105.879 7.48 105.357 7.36 104.781 7.36C103.953 7.36 103.245 7.624 102.657 8.152C102.081 8.68 101.751 9.412 101.667 10.348H107.895Z" fill="#18181B"/>
</svg>
